<?xml version="1.0" encoding="utf-8"?>
<!-- Generator: Adobe Illustrator 28.2.0, SVG Export Plug-In . SVG Version: 6.00 Build 0)  -->
<svg version="1.1" id="Layer_1" xmlns="http://www.w3.org/2000/svg" xmlns:xlink="http://www.w3.org/1999/xlink" x="0px" y="0px"
	 viewBox="0 0 200 200" style="enable-background:new 0 0 200 200;" xml:space="preserve">
<style type="text/css">
	.st0{fill:#231F20;}
	.st1{fill:#EAB30F;}
	.st2{fill:#EC1C24;}
</style>
<g>
	<g>
		<path class="st0" d="M196.67,100c0,53.44-43.33,96.77-96.78,96.77c-53.45,0-96.78-43.33-96.78-96.77
			c0-53.45,43.33-96.78,96.78-96.78C153.34,3.22,196.67,46.55,196.67,100z"/>
	</g>
	<g>
		<path class="st1" d="M99.89,200c-26.71,0-51.82-10.4-70.71-29.29c-18.89-18.89-29.29-44-29.29-70.71
			c0-26.71,10.4-51.82,29.29-70.71C48.07,10.4,73.18,0,99.89,0c26.71,0,51.82,10.4,70.71,29.29c18.89,18.89,29.29,44,29.29,70.71
			c0,26.71-10.4,51.82-29.29,70.71C151.72,189.6,126.6,200,99.89,200z M99.89,6.45C48.31,6.45,6.34,48.42,6.34,100
			c0,51.58,41.97,93.55,93.56,93.55c51.59,0,93.56-41.97,93.56-93.55C193.45,48.42,151.48,6.45,99.89,6.45z"/>
	</g>
	<g>
		<path class="st2" d="M123.27,41.34c0,0,8.52,7.24,13.63,15.33c5.56,8.8,14.48,14.2,20.72,9.09c6.25-5.11,8.23-13.63,8.23-17.04
			c1.99-0.28,12.78,8.8,11.36,23.85c-1.42,15.05-17.23,36.34-18.65,42.59c-1.42,2.55-7.61,20.3,13.82,17.03
			c0,0,4.26,9.09-17.32,24.99c-20.3,12.77-38.9,2.84-45.14-6.82c-6.12-9.46-13.34-24.98-0.29-60.48
			C122.7,54.41,123.27,41.34,123.27,41.34z"/>
	</g>
	<g>
		<path class="st0" d="M136.04,80.25l-12.21,33.22c0,0-5.68,20.73,0.29,28.68c6.25,9.08,18.74,5.39,24.42,0
			c-4.54,0.85-18.17-8.8-13.06-25.27c5.59-18.03,17.03-31.23,17.03-31.23S138.88,83.09,136.04,80.25z"/>
	</g>
	<g>
		<path class="st2" d="M42.54,36.8c0,0,8.52,7.24,13.63,15.33c5.56,8.81,14.48,14.2,20.73,9.09c6.25-5.11,8.23-13.63,8.23-17.04
			c1.99-0.28,12.78,8.8,11.36,23.85c-1.42,15.05-17.23,36.34-18.65,42.59c-1.42,2.55-7.61,20.3,13.82,17.03
			c0,0,4.26,9.09-17.32,24.99c-20.3,12.78-37.76,3.4-45.15-6.81c-6.6-9.14-13.35-24.99-0.28-60.48
			C41.97,49.87,42.54,36.8,42.54,36.8z"/>
	</g>
	<g>
		<path class="st0" d="M55.32,75.7l-12.21,33.22c0,0-5.68,20.73,0.28,28.68c6.25,9.09,18.74,5.39,24.42,0
			c-4.54,0.85-18.17-8.8-13.06-25.27C60.35,94.3,71.79,81.1,71.79,81.1S58.16,78.55,55.32,75.7z"/>
	</g>
</g>
</svg>
